<svg xmlns="http://www.w3.org/2000/svg" viewBox="0 0 1024 1024" role="img" aria-label="VV favicon">
  <title>VV</title>
  <defs>
    <mask id="vv-fav-cut" maskUnits="userSpaceOnUse">
      <rect width="1024" height="1024" fill="white"/>
      <g transform="translate(512 512) scale(1.55) translate(-512 -512)">
        <g transform="translate(0,1024) scale(0.1,-0.1)" fill="black">
          <path d="M2582 6965 c-61 -27 -74 -117 -28 -190 7 -11 28 -54 46 -95 18 -41
73 -163 123 -270 49 -107 171 -375 272 -595 100 -220 250 -546 332 -725 83
-179 226 -489 318 -690 188 -409 468 -1017 493 -1069 39 -84 144 -93 191 -17
11 17 123 247 249 511 220 459 345 719 644 1340 75 154 162 336 196 405 33 69
91 190 130 270 360 744 542 1125 542 1132 0 4 -202 8 -448 8 -591 0 -566 8
-647 -205 -80 -209 -217 -567 -252 -660 -38 -100 -77 -201 -283 -740 -78 -203
-145 -373 -149 -377 -3 -4 -19 25 -34 65 -35 93 -374 989 -478 1262 -44 116
-108 282 -141 370 -117 307 -58 279 -608 282 -362 2 -441 0 -468 -12z"/>
          <path d="M6903 6966 c-124 -40 -175 -95 -265 -287 -36 -79 -146 -313 -243
-519 -97 -206 -257 -546 -355 -755 -98 -209 -243 -517 -322 -685 -303 -638
-428 -901 -614 -1302 -73 -158 -73 -158 390 -158 462 0 462 0 514 26 95 47 42
-57 657 1284 366 797 596 1298 685 1490 403 871 393 844 327 894 -36 27 -695
37 -774 12z"/>
        </g>
      </g>
    </mask>
  </defs>
  <rect width="1024" height="1024" rx="180" fill="#0F172A"/>
  <rect width="1024" height="1024" rx="180" fill="#14B8A6" mask="url(#vv-fav-cut)"/>
</svg>
