<svg xmlns="http://www.w3.org/2000/svg" width="1020" height="520" viewBox="0 0 1020 520"><title>Split ownership between Cluster Autoscaler and Karpenter</title><desc>Cluster Autoscaler owns system node groups (kube-system, logging, monitoring) on predictable on-demand nodes. Karpenter owns the stateless fleet on dynamically-provisioned nodes. Taints and tolerations enforce the boundary — no overlap, no oscillation.</desc><path fill="#fff" d="M0 0h1020v520H0z"/><path fill="none" stroke="#1e1e1e" stroke-linecap="round" stroke-width="2" d="M330 10c71.27-.21 144.14-.13 360 0m-360 0c97.58.53 195.99-.08 360 0m0 0c14.3 1.45 20.77 7.03 20 20m-20-20c15 1.49 18.58 6.75 20 20m0 0c-1.05 14.02-1.26 29.67 0 40m0-40c-.25 13.75-.55 27.66 0 40m0 0c.13 11.88-5.78 18.26-20 20m20-20c-.41 15.08-8.75 19.03-20 20m0 0c-138.91-1.18-275.66.13-360 0m360 0c-143.47 2.11-286.42 1.41-360 0m0 0c-11.91-1.03-21.75-5.38-20-20m20 20c-12.44-1.78-18.08-6.15-20-20m0 0c-.5-15.14-.38-27.79 0-40m0 40c-.54-12.32.5-25.37 0-40m0 0c.03-11.69 5.96-20.1 20-20m-20 20c1.75-15.52 7.85-20.48 20-20"/><text x="160" y="21.48" fill="#1e1e1e" dominant-baseline="alphabetic" font-family="Helvetica, Segoe UI Emoji" font-size="24" style="white-space:pre" text-anchor="middle" transform="translate(350 30)">EKS cluster</text><path fill="none" stroke="#1e1e1e" stroke-linecap="round" stroke-width="2" d="M32.5 210c71.36-2.45 141.73-2.11 355 0m-355 0c76.59 2.62 153.22 2.28 355 0m0 0c13.37-1.49 21.03 7.12 22.5 22.5M387.5 210c17.07-1.99 23.01 6.44 22.5 22.5m0 0c-1.52 8.93 1.39 16.96 0 45m0-45c-1 13.88.2 28.01 0 45m0 0c1.32 14.35-5.64 21.32-22.5 22.5m22.5-22.5c.81 16.87-7.71 23.15-22.5 22.5m0 0c-75.78-1.52-153.33-.17-355 0m355 0c-81.97 1.44-163.21 1.18-355 0m0 0c-13.35-1.61-20.6-9.15-22.5-22.5M32.5 300c-15.05-1.81-20.86-6.79-22.5-22.5m0 0c1.44-16.35 1.52-32.15 0-45m0 45c.22-12.51-.3-23.65 0-45m0 0c.9-13.37 7.69-21.21 22.5-22.5M10 232.5c.51-16.73 6.11-23.04 22.5-22.5"/><text x="180" y="17.9" fill="#1e1e1e" dominant-baseline="alphabetic" font-family="Helvetica, Segoe UI Emoji" font-size="20" style="white-space:pre" text-anchor="middle" transform="translate(30 235)">Cluster Autoscaler (system)</text><path fill="none" stroke="#1e1e1e" stroke-linecap="round" stroke-width="2" d="M632.5 210c69.89 2.42 141.33.44 355 0m-355 0c127.95-1.14 255.16-1.2 355 0m0 0c14.78-.43 22.79 6.38 22.5 22.5M987.5 210c12.86-.87 20.34 5.31 22.5 22.5m0 0c1.14 11.01-.83 22.57 0 45m0-45c.3 14.31-1.01 26.94 0 45m0 0c-1.49 15.15-8.67 21.88-22.5 22.5m22.5-22.5c2.03 17-5.84 24.77-22.5 22.5m0 0c-88.13.73-174.26-.46-355 0m355 0c-92.18.76-185.98.95-355 0m0 0c-13.12 1.82-20.95-8.1-22.5-22.5m22.5 22.5c-15.98-1.85-21.14-6.59-22.5-22.5m0 0c.25-15.73.29-28.83 0-45m0 45c.93-9.11.85-20.75 0-45m0 0c1.77-13.37 8.59-23.83 22.5-22.5M610 232.5c-.73-16.27 8.14-23.09 22.5-22.5"/><text x="180" y="17.9" fill="#1e1e1e" dominant-baseline="alphabetic" font-family="Helvetica, Segoe UI Emoji" font-size="20" style="white-space:pre" text-anchor="middle" transform="translate(630 235)">Karpenter (workloads)</text><path fill="none" stroke="#1e1e1e" stroke-linecap="round" stroke-width="2" d="M130 430c31.8-.36 65.94.96 160 0m-160 0c49.52.58 96.64.93 160 0m0 0c14.52.62 18.04 4.8 20 20m-20-20c11.59.26 19.77 7.93 20 20m0 0c.67 11.72 1.82 21.46 0 40m0-40c-.42 11.34-.23 23.08 0 40m0 0c-.3 14.29-6.87 19.93-20 20m20-20c-1.34 15.45-7.73 19.29-20 20m0 0c-43.66.92-90.37-.89-160 0m160 0c-46.43-.37-93.06.65-160 0m0 0c-15.23 1.24-18.8-6.21-20-20m20 20c-15.26-1.88-18.92-5.57-20-20m0 0c-.97-9.66-.96-22.62 0-40m0 40c-.38-14.83-.02-30.08 0-40m0 0c-1.36-11.71 8.65-19.94 20-20m-20 20c-1.97-14.14 4.73-20.65 20-20"/><text x="80" y="14.32" fill="#1e1e1e" dominant-baseline="alphabetic" font-family="Helvetica, Segoe UI Emoji" font-size="16" style="white-space:pre" text-anchor="middle" transform="translate(130 450)">system nodegroup</text><path fill="none" stroke="#1e1e1e" stroke-linecap="round" stroke-width="2" d="M630 430c29.51.94 57.28-1.34 140 0m-140 0c34.01-.78 68.37-1.99 140 0m0 0c11.92 1.68 19.8 8.05 20 20m-20-20c11.99 1.38 21.7 6.8 20 20m0 0c-.63 13.62-.35 22.72 0 40m0-40c.85 9.87.54 20.22 0 40m0 0c.89 15.09-5.9 20.49-20 20m20-20c-.12 15.58-5.86 20.91-20 20m0 0c-44.41.5-86.01-1.28-140 0m140 0c-45.41.87-90.68.6-140 0m0 0c-15 .67-19.16-5.15-20-20m20 20c-11.6-1.92-19.21-5.38-20-20m0 0c1.81-9.17 1.78-19.57 0-40m0 40c.34-13.67-.86-25.65 0-40m0 0c-.49-11.72 5.55-18.56 20-20m-20 20c1.39-13.69 6.76-20.7 20-20"/><text x="70" y="14.32" fill="#1e1e1e" dominant-baseline="alphabetic" font-family="Helvetica, Segoe UI Emoji" font-size="16" style="white-space:pre" text-anchor="middle" transform="translate(630 450)">app nodepool A</text><path fill="none" stroke="#1e1e1e" stroke-linecap="round" stroke-width="2" d="M850 430c27.23-1.7 56.65.42 140 0m-140 0c54.56.76 110.23-.02 140 0m0 0c13.33-1.26 21.56 7.31 20 20m-20-20c12.39-2.1 19.03 5.66 20 20m0 0c-1.13 15.52 2.28 27.98 0 40m0-40c.13 10.4 1.32 19.36 0 40m0 0c-1.92 11.89-4.94 21.05-20 20m20-20c1.1 11.11-8.59 17.93-20 20m0 0c-46.69.04-96.72-1.7-140 0m140 0c-50.24.16-100.01.6-140 0m0 0c-14.77.09-19.51-8.1-20-20m20 20c-12.53-1.95-19.49-5.18-20-20m0 0c-.21-8.68-.28-20.52 0-40m0 40c-.93-10.51.29-23.23 0-40m0 0c.39-11.73 6.45-21.17 20-20m-20 20c.14-13.23 8.79-20.76 20-20"/><text x="70" y="14.32" fill="#1e1e1e" dominant-baseline="alphabetic" font-family="Helvetica, Segoe UI Emoji" font-size="16" style="white-space:pre" text-anchor="middle" transform="translate(850 450)">app nodepool B</text><g fill="none" stroke="#1e1e1e" stroke-linecap="round" stroke-width="2"><path d="M450.88 90.19c-39.63 20.13-199.87 99.74-239.84 119.65m238.84-120.6c-39.59 20.41-199.4 101.79-239.24 122.05"/><path d="M227.7 193.01c-3.26 5.54-7.27 9.27-17.06 18.28m17.06-18.28c-5.17 4.91-9.1 10.72-17.06 18.28m24.82-3.04c-4.7 2.54-10.27 3.2-24.82 3.04m24.82-3.04c-7.29.8-13.32 2.48-24.82 3.04"/></g><g fill="none" stroke="#1e1e1e" stroke-linecap="round" stroke-width="2"><path d="M569.92 89.5c40.27 20.27 200.39 101.18 240.5 121.35m-242-122.66c40.26 20.01 201 100.94 241.28 120.98"/><path d="M784.86 206.29c4.14 1.3 11.37 2.13 24.84 2.88m-24.84-2.88c9.15.91 17.92 1.97 24.84 2.88"/><path d="M792.52 191c2.5 4.37 8.19 8.27 17.18 18.17M792.52 191c6.56 6.21 12.71 12.52 17.18 18.17"/></g><g fill="none" stroke="#1e1e1e" stroke-linecap="round" stroke-width="2"><path d="M208.97 298.81c.16 21.68.65 108.95.83 130.64m.83-128.64c.09 21.87-1.67 108.4-1.88 129.89m-8.19-23.62c-.44 4.49 2.27 9.69 8.19 23.62m-8.19-23.62c1.67 5.46 3.27 9.83 8.19 23.62"/><path d="M217.66 407.35c-3.88 4.28-4.6 9.43-8.91 23.35m8.91-23.35c-2 5.31-4.08 9.62-8.91 23.35"/></g><g fill="none" stroke="#1e1e1e" stroke-linecap="round" stroke-width="2"><path d="M750.41 300.53c-8.27 21.8-42.76 108.38-51.23 129.93m49.99-130.7c-7.79 21.47-39.28 106.94-47.71 128.82"/><path d="M701.72 403.58c.75 3.66.59 9.34-.26 25m.26-25c-.93 7.73.41 13.41-.26 25m16.26-18.98c-2.44 2.5-5.82 6.97-16.26 18.98m16.26-18.98c-5.54 6.01-8.79 9.96-16.26 18.98"/></g><g fill="none" stroke="#1e1e1e" stroke-linecap="round" stroke-width="2"><path d="M849.45 299.84c12.03 21.54 59.91 107.42 71.51 129.23m-69.59-130.35c12.05 21.67 57.46 109.73 69.14 131.4m-18.5-16.81c3.43 5.06 5.86 5.29 18.5 16.81m-18.5-16.81c6.96 6.68 12.59 12.44 18.5 16.81"/><path d="M917.14 405.35c.38 6.59-.23 8.42 3.37 24.77m-3.37-24.77c1.59 9.63 1.78 18.25 3.37 24.77"/></g></svg>